<svg width="40" height="40" viewBox="0 0 40 40" fill="none" xmlns="http://www.w3.org/2000/svg">
<path d="M24.7607 5.41613C27.7535 4.76823 31.4663 4.80062 36.5187 6.06061C37.3894 6.27772 37.9187 7.15786 37.7011 8.02642C37.4835 8.89498 36.6013 9.42309 35.7306 9.20597C31.0332 8.03456 27.8399 8.06714 25.45 8.58454C23.0527 9.10352 21.3294 10.1328 19.5037 11.2459L19.367 11.3293C17.6071 12.4029 15.6584 13.5918 13.0837 14.0199C10.4132 14.4638 7.25853 14.0713 3.02185 12.3805C2.18861 12.048 1.78334 11.1046 2.11667 10.2733C2.44999 9.44209 3.3957 9.03779 4.22893 9.37033C8.11707 10.922 10.6498 11.1376 12.5495 10.8218C14.4782 10.5012 15.9486 9.61364 17.809 8.47944C19.6394 7.36348 21.7753 6.06243 24.7607 5.41613Z" fill="#0F0F0F"/>
<path d="M36.5188 12.545C31.4663 11.285 27.7535 11.2526 24.7608 11.9005C21.7753 12.5468 19.6394 13.8478 17.809 14.9638C15.9486 16.098 14.4782 16.9856 12.5496 17.3062C10.6499 17.6219 8.11713 17.4063 4.22899 15.8547C3.39576 15.5222 2.45006 15.9265 2.11674 16.7578C1.78341 17.5889 2.18867 18.5324 3.02191 18.8649C7.25859 20.5557 10.4132 20.9481 13.0837 20.5042C15.6584 20.0762 17.6072 18.8873 19.3671 17.8137L19.5037 17.7303C21.3294 16.6172 23.0527 15.5879 25.4501 15.0689C27.84 14.5515 31.0333 14.5189 35.7307 15.6903C36.6013 15.9075 37.4836 15.3794 37.7011 14.5108C37.9187 13.6422 37.3895 12.7621 36.5188 12.545Z" fill="#0F0F0F"/>
<path fill-rule="evenodd" clip-rule="evenodd" d="M31.2497 16.4183C30.6855 16.4183 30.2154 16.7096 29.8873 17.1505C29.7721 17.3062 29.5057 17.6705 29.152 18.1804C28.6814 18.8585 28.0515 19.8009 27.4189 20.8527C26.7894 21.8994 26.1399 23.083 25.643 24.2396C25.1672 25.3472 24.7482 26.5498 24.7499 27.7691C24.751 28.1113 24.7919 28.4551 24.8482 28.792C24.9421 29.3542 25.1329 30.1284 25.5307 30.9222C25.9317 31.7225 26.5588 32.5721 27.5299 33.2178C28.5112 33.8704 29.7466 34.25 31.2497 34.25C32.7528 34.25 33.9881 33.8704 34.9693 33.2178C35.9404 32.5721 36.5677 31.7225 36.9687 30.9224C37.3665 30.1284 37.5575 29.3542 37.6514 28.7922C37.7078 28.4548 37.7492 28.11 37.7497 27.7674C37.7502 26.5482 37.3324 25.3473 36.8564 24.2396C36.3597 23.083 35.7102 21.8994 35.0806 20.8527C34.448 19.8009 33.818 18.8585 33.3474 18.1804C32.9936 17.6705 32.7271 17.3062 32.6121 17.1505C32.284 16.7096 31.8137 16.4183 31.2497 16.4183ZM33.8694 25.5168C33.4522 24.5457 32.883 23.5003 32.2938 22.5208C31.9354 21.9251 31.5762 21.3641 31.2497 20.8721C30.9232 21.3641 30.5639 21.9251 30.2056 22.5208C29.6166 23.5003 29.0473 24.5457 28.6302 25.5168L28.6065 25.5717C28.3193 26.2394 27.98 27.0289 28.0002 27.7665C28.0197 28.3498 28.1768 28.9521 28.4376 29.4724C28.6458 29.8881 28.9328 30.2543 29.3327 30.5203C29.7225 30.7795 30.3153 31.0079 31.2497 31.0079C32.1841 31.0079 32.7769 30.7795 33.1667 30.5203C33.5666 30.2543 33.8536 29.8879 34.0619 29.4724C34.3227 28.9521 34.4799 28.3498 34.4994 27.7663C34.5197 27.029 34.1802 26.2396 33.8931 25.5721L33.8694 25.5168Z" fill="#0F0F0F"/>
<path d="M23.3356 18.8625C24.5711 18.4626 25.5183 19.7485 24.9374 20.9074C24.672 21.437 24.3735 21.8876 23.7801 22.0973C22.1923 22.6582 20.877 23.4481 19.5037 24.2853L19.3671 24.3687C17.6072 25.4423 15.6584 26.6312 13.0837 27.0592C10.4132 27.5031 7.25861 27.1107 3.02191 25.4199C2.18867 25.0874 1.78341 24.1439 2.11673 23.3128C2.45007 22.4814 3.39575 22.0771 4.22901 22.4097C8.11713 23.9613 10.6499 24.1769 12.5496 23.8612C14.4782 23.5406 15.9486 22.653 17.809 21.5188C19.577 20.4409 21.3965 19.4903 23.3356 18.8625Z" fill="#0F0F0F"/>
</svg>
