<svg width="33" height="36" viewBox="0 0 33 36" fill="none" xmlns="http://www.w3.org/2000/svg">
<path d="M1.77685 7.08852C1.40805 6.91352 0.967221 7.07063 0.79222 7.43942C0.617219 7.80822 0.774321 8.24905 1.14312 8.42405L1.77685 7.08852ZM7.53636 10.6863L7.6955 11.4081C7.89923 11.3632 8.0745 11.2343 8.17804 11.0531C8.28158 10.872 8.30376 10.6556 8.23909 10.4572L7.53636 10.6863ZM0.840927 11.4056C0.44229 11.4934 0.190376 11.8878 0.278263 12.2865C0.36615 12.6851 0.760556 12.937 1.15919 12.8491L0.840927 11.4056ZM6.48805 5.08617C6.36152 4.69806 5.94433 4.48601 5.55622 4.61254C5.16811 4.73907 4.95606 5.15626 5.08259 5.54437L6.48805 5.08617ZM1.09257 20.6726C0.72377 20.8476 0.566667 21.2884 0.741668 21.6572C0.916669 22.026 1.3575 22.1831 1.7263 22.0081L1.09257 20.6726ZM7.53498 18.4803L8.23778 18.7092C8.30238 18.5108 8.28015 18.2944 8.17656 18.1133C8.07298 17.9322 7.89769 17.8033 7.69395 17.7585L7.53498 18.4803ZM5.08245 23.6244C4.95605 24.0125 5.16824 24.4296 5.55639 24.556C5.94453 24.6824 6.36166 24.4702 6.48806 24.0821L5.08245 23.6244ZM1.15897 16.3193C0.760308 16.2315 0.365961 16.4835 0.278166 16.8822C0.190372 17.2808 0.442377 17.6752 0.841034 17.763L1.15897 16.3193ZM14.9588 28.1686C14.9588 28.5768 15.2897 28.9077 15.6979 28.9077C16.1061 28.9077 16.4371 28.5768 16.4371 28.1686H14.9588ZM15.7471 22.3786L16.2163 21.8074C15.9435 21.5834 15.5505 21.5834 15.2778 21.8075L15.7471 22.3786ZM20.0645 26.8816C20.3799 27.1407 20.8457 27.095 21.1048 26.7796C21.3639 26.4642 21.3183 25.9984 21.0028 25.7393L20.0645 26.8816ZM10.4938 25.7394C10.1785 25.9986 10.1329 26.4644 10.3921 26.7797C10.6513 27.0951 11.1171 27.1406 11.4325 26.8815L10.4938 25.7394ZM16.5382 1C16.5382 0.591789 16.2072 0.26087 15.799 0.26087C15.3908 0.26087 15.0599 0.591789 15.0599 1H16.5382ZM15.7499 6.79004L15.2807 7.36119C15.5534 7.58522 15.9465 7.58516 16.2192 7.36105L15.7499 6.79004ZM11.4324 2.28702C11.117 2.02792 10.6512 2.07358 10.3921 2.38901C10.133 2.70444 10.1787 3.1702 10.4941 3.42931L11.4324 2.28702ZM21.0031 3.42919C21.3185 3.16999 21.364 2.70422 21.1048 2.38886C20.8456 2.07349 20.3798 2.02796 20.0645 2.28715L21.0031 3.42919ZM15.799 14.6564L15.4822 15.3242L15.4822 15.3242L15.799 14.6564ZM29.8227 26.0235L30.2409 25.414L29.8227 26.0235ZM21.9094 26.0233L21.4913 25.4139L21.9094 26.0233ZM26.5979 16.4572C26.1897 16.4572 25.8588 16.7882 25.8588 17.1964C25.8588 17.6046 26.1897 17.9355 26.5979 17.9355V16.4572ZM26.5979 19.9754C26.1897 19.9754 25.8588 20.3063 25.8588 20.7145C25.8588 21.1227 26.1897 21.4536 26.5979 21.4536V19.9754ZM26.5979 23.7363C26.1897 23.7363 25.8588 24.0672 25.8588 24.4754C25.8588 24.8836 26.1897 25.2145 26.5979 25.2145V23.7363ZM7.83523 9.96334L1.77685 7.08852L1.14312 8.42405L7.2015 11.2989L7.83523 9.96334ZM7.37723 9.96451L0.840927 11.4056L1.15919 12.8491L7.6955 11.4081L7.37723 9.96451ZM8.23909 10.4572L8.2211 10.402L6.81564 10.8602L6.83363 10.9154L8.23909 10.4572ZM8.22109 10.402L6.48805 5.08617L5.08259 5.54437L6.81564 10.8602L8.22109 10.402ZM7.15095 17.7978L1.09257 20.6726L1.7263 22.0081L7.78468 19.1333L7.15095 17.7978ZM6.83218 18.2514L5.08245 23.6244L6.48806 24.0821L8.23778 18.7092L6.83218 18.2514ZM7.69395 17.7585L7.62679 17.7437L7.30884 19.1873L7.37601 19.2021L7.69395 17.7585ZM7.62678 17.7437L1.15897 16.3193L0.841034 17.763L7.30885 19.1874L7.62678 17.7437ZM14.9588 22.419L14.9588 28.1686H16.4371L16.4371 22.419H14.9588ZM15.2779 22.9497L20.0645 26.8816L21.0028 25.7393L16.2163 21.8074L15.2779 22.9497ZM15.2778 21.8075L15.2286 21.848L16.1672 22.99L16.2164 22.9496L15.2778 21.8075ZM15.2286 21.848L10.4938 25.7394L11.4325 26.8815L16.1672 22.99L15.2286 21.848ZM16.5382 6.74963V1H15.0599V6.74963H16.5382ZM16.219 6.2189L11.4324 2.28702L10.4941 3.42931L15.2807 7.36119L16.219 6.2189ZM16.2192 7.36105L16.2683 7.32064L15.3297 6.17862L15.2805 6.21903L16.2192 7.36105ZM16.2683 7.32065L21.0031 3.42919L20.0645 2.28715L15.3297 6.17862L16.2683 7.32065ZM15.3811 15.2762L15.4313 15.3L16.0651 13.9645L16.0148 13.9407L15.3811 15.2762ZM15.4313 15.3L15.4822 15.3242L16.1159 13.9886L16.0651 13.9645L15.4313 15.3ZM14.9588 14.5125V14.5602H16.4371V14.5125H14.9588ZM14.9588 14.5602V14.6084H16.4371V14.5602H14.9588ZM16.0148 13.8447L7.83523 9.96334L7.2015 11.2989L15.3811 15.1802L16.0148 13.8447ZM16.1159 13.8927L16.0651 13.8686L15.4313 15.2041L15.4822 15.2282L16.1159 13.8927ZM16.0651 13.8686L16.0148 13.8447L15.3811 15.1802L15.4313 15.2041L16.0651 13.8686ZM16.5382 14.6564V14.6082H15.0599V14.6564H16.5382ZM16.5382 14.6082V14.5604H15.0599V14.6082H16.5382ZM16.5382 14.5604V14.5122H15.0599V14.5604H16.5382ZM16.5382 14.5122L16.5382 6.74963L15.0599 6.74963L15.0599 14.5122H16.5382ZM15.4822 13.8444L15.4313 13.8686L16.0651 15.2041L16.1159 15.18L15.4822 13.8444ZM15.4313 13.8686L15.3811 13.8924L16.0148 15.2279L16.0651 15.2041L15.4313 13.8686ZM15.3811 13.8924L7.15095 17.7978L7.78468 19.1333L16.0148 15.2279L15.3811 13.8924ZM14.9588 14.6084V14.6561H16.4371V14.6084H14.9588ZM14.9588 14.6561L14.9588 22.419H16.4371L16.4371 14.6561H14.9588ZM16.0148 15.3239L16.0651 15.3001L15.4314 13.9645L15.3811 13.9884L16.0148 15.3239ZM16.0651 15.3L16.1159 15.2759L15.4822 13.9404L15.4313 13.9645L16.0651 15.3ZM31.3043 29.9228C31.3043 32.1896 29.0117 34.2609 25.866 34.2609V35.7391C29.5437 35.7391 32.7826 33.264 32.7826 29.9228H31.3043ZM25.866 34.2609C22.7202 34.2609 20.4276 32.1896 20.4276 29.9228H18.9493C18.9493 33.264 22.1882 35.7391 25.866 35.7391V34.2609ZM29.4045 26.6329C30.6013 27.4542 31.3043 28.6448 31.3043 29.9228H32.7826C32.7826 28.0671 31.7586 26.4555 30.2409 25.414L29.4045 26.6329ZM20.4276 29.9228C20.4276 28.6447 21.1307 27.4541 22.3276 26.6328L21.4913 25.4139C19.9734 26.4553 18.9493 28.067 18.9493 29.9228H20.4276ZM22.3276 26.6328C22.4726 26.5333 22.6148 26.4602 22.7647 26.3902C22.8911 26.3312 23.0999 26.2418 23.2611 26.1494C23.444 26.0447 23.662 25.887 23.8218 25.6253C23.9824 25.3622 24.0389 25.0692 24.0389 24.7705H22.5607C22.5607 24.8845 22.5397 24.8883 22.5602 24.8549C22.5797 24.8228 22.5946 24.8276 22.5263 24.8667C22.4363 24.9183 22.3457 24.9543 22.1391 25.0508C21.956 25.1363 21.7317 25.2489 21.4913 25.4139L22.3276 26.6328ZM25.8661 2.7736C26.5027 2.7736 26.997 2.89181 27.305 3.07367C27.5751 3.23313 27.6933 3.42662 27.6933 3.71355H29.1715C29.1715 2.83558 28.7152 2.18953 28.0565 1.80067C27.4357 1.43422 26.6468 1.29533 25.8661 1.29533V2.7736ZM30.2409 25.414C30.0004 25.249 29.7761 25.1365 29.593 25.051C29.3864 24.9545 29.2959 24.9185 29.2059 24.8669C29.1375 24.8277 29.1525 24.823 29.172 24.855C29.1925 24.8885 29.1715 24.8847 29.1715 24.7707H27.6933C27.6933 25.0694 27.7498 25.3624 27.9104 25.6255C28.0702 25.8871 28.2882 26.0448 28.471 26.1496C28.6322 26.2419 28.8411 26.3313 28.9674 26.3903C29.1173 26.4603 29.2595 26.5334 29.4045 26.6329L30.2409 25.414ZM25.8661 1.29533C25.0854 1.29533 24.2965 1.43422 23.6757 1.80067C23.017 2.18953 22.5607 2.83558 22.5607 3.71354H24.0389C24.0389 3.42662 24.1571 3.23313 24.4272 3.07367C24.7353 2.89181 25.2295 2.7736 25.8661 2.7736V1.29533ZM24.0389 11.0489V3.71354H22.5607V11.0489H24.0389ZM16.1159 15.2759L23.6167 11.7167L22.9829 10.3811L15.4822 13.9404L16.1159 15.2759ZM24.0389 24.7705V18.2157H22.5607V24.7705H24.0389ZM24.0389 18.2157V11.0489H22.5607V18.2157H24.0389ZM15.4822 15.3242L22.9829 18.8834L23.6167 17.5479L16.1159 13.9886L15.4822 15.3242ZM28.4324 16.4572H26.5979V17.9355H28.4324V16.4572ZM27.6933 3.71355V17.1964H29.1715V3.71355H27.6933ZM27.6933 17.1964V20.7145H29.1715V17.1964H27.6933ZM28.4324 19.9754H26.5979V21.4536H28.4324V19.9754ZM27.6933 20.7145V24.4754H29.1715V20.7145H27.6933ZM27.6933 24.4754V24.7707H29.1715V24.4754H27.6933ZM28.4324 23.7363H26.5979V25.2145H28.4324V23.7363Z" fill="black"/>
</svg>
