<svg width="53" height="52" viewBox="0 0 53 52" fill="none" xmlns="http://www.w3.org/2000/svg">
<path fill-rule="evenodd" clip-rule="evenodd" d="M37.3858 33.0912C37.3858 37.6692 32.8143 42.25 26.0108 42.25C19.2074 42.25 14.6358 37.6692 14.6358 33.0912C14.6358 28.3426 17.7243 22.4289 21.3544 17.2807C22.9952 14.9539 24.6418 12.927 25.9295 11.4297C27.2417 13.044 28.9444 15.2415 30.6409 17.7215C32.4098 20.3072 34.1302 23.1397 35.3979 25.8964C36.6888 28.7036 37.3858 31.1685 37.3858 33.0912ZM11.3858 33.0912C11.3858 24.2564 19.7241 13.6028 23.8086 8.91415C25.1335 7.39327 26.0108 6.5 26.0108 6.5C26.0108 6.5 26.8513 7.42912 28.1294 8.98551C32.1824 13.9214 40.6358 25.1659 40.6358 33.0912C40.6358 39.9444 34.088 45.5 26.0108 45.5C17.9337 45.5 11.3858 39.9444 11.3858 33.0912ZM18.6956 27.625H22.1919C21.5341 29.1264 21.1358 30.5502 21.1358 31.7615C21.1358 33.6214 22.9552 35.75 26.0108 35.75V39C21.5235 39 17.8858 35.7592 17.8858 31.7615C17.8858 30.4275 18.1962 29.0224 18.6956 27.625Z" fill="black"/>
</svg>
