<svg width="18" height="20" viewBox="0 0 18 20" fill="none" xmlns="http://www.w3.org/2000/svg">
<path fill-rule="evenodd" clip-rule="evenodd" d="M4.83814 0.448356C4.98701 0.679135 5.04734 0.966131 5.00587 1.2463C4.96441 1.52646 4.82454 1.77688 4.617 1.94255C3.78559 2.60619 3.10819 3.48004 2.64073 4.49194C2.17327 5.50385 1.92917 6.62478 1.92857 7.76219C1.92857 8.04633 1.82698 8.31884 1.64614 8.51976C1.4653 8.72067 1.22003 8.83355 0.964286 8.83355C0.708541 8.83355 0.463271 8.72067 0.282433 8.51976C0.101594 8.31884 0 8.04633 0 7.76219C0.000465033 6.28449 0.317387 4.82813 0.924583 3.51341C1.53178 2.1987 2.41182 1.06337 3.492 0.201229C3.59489 0.119109 3.71134 0.0603216 3.83469 0.0282252C3.95805 -0.00387111 4.08588 -0.00864698 4.21089 0.0141705C4.33591 0.0369881 4.45565 0.0869517 4.56328 0.161206C4.6709 0.235461 4.7643 0.333979 4.83814 0.448356ZM4.90886 3.66958C5.718 2.77058 6.74892 2.15834 7.87125 1.91031C8.99357 1.66227 10.1569 1.78957 11.2141 2.27611C12.2713 2.76265 13.1749 3.58657 13.8107 4.64369C14.4464 5.7008 14.7857 6.94364 14.7857 8.21502V13.2147C14.7857 13.5936 14.9212 13.9569 15.1623 14.2248C15.4034 14.4927 15.7304 14.6432 16.0714 14.6432C16.2419 14.6432 16.4054 14.7184 16.526 14.8524C16.6466 14.9863 16.7143 15.168 16.7143 15.3574C16.7143 15.5469 16.6466 15.7285 16.526 15.8625C16.4054 15.9964 16.2419 16.0717 16.0714 16.0717H1.92857C1.75808 16.0717 1.59456 15.9964 1.474 15.8625C1.35344 15.7285 1.28571 15.5469 1.28571 15.3574C1.28571 15.168 1.35344 14.9863 1.474 14.8524C1.59456 14.7184 1.75808 14.6432 1.92857 14.6432C2.26956 14.6432 2.59659 14.4927 2.83771 14.2248C3.07883 13.9569 3.21429 13.5936 3.21429 13.2147V8.21502C3.21428 7.37085 3.36393 6.53496 3.65468 5.75505C3.94544 4.97514 4.37161 4.2665 4.90886 3.66958ZM6.75 18.9286C6.75 18.6445 6.85159 18.372 7.03243 18.1711C7.21327 17.9702 7.45854 17.8573 7.71429 17.8573H10.2857C10.5415 17.8573 10.7867 17.9702 10.9676 18.1711C11.1484 18.372 11.25 18.6445 11.25 18.9286C11.25 19.2128 11.1484 19.4853 10.9676 19.6862C10.7867 19.8871 10.5415 20 10.2857 20H7.71429C7.45854 20 7.21327 19.8871 7.03243 19.6862C6.85159 19.4853 6.75 19.2128 6.75 18.9286ZM14.508 0.201229C14.405 0.119158 14.2885 0.060429 14.165 0.0283959C14.0416 -0.00363722 13.9137 -0.00834745 13.7887 0.0145341C13.6636 0.0374157 13.5438 0.087441 13.4362 0.161754C13.3285 0.236067 13.2351 0.333212 13.1612 0.447642C13.0873 0.562073 13.0345 0.691548 13.0057 0.828675C12.9768 0.965802 12.9726 1.1079 12.9932 1.24684C13.0138 1.38579 13.0588 1.51887 13.1257 1.63849C13.1926 1.7581 13.28 1.86191 13.383 1.94398C14.2141 2.60733 14.8912 3.48073 15.3587 4.4921C15.8261 5.50347 16.0704 6.62384 16.0714 7.76076C16.0714 8.0449 16.173 8.31741 16.3539 8.51833C16.5347 8.71925 16.78 8.83212 17.0357 8.83212C17.2915 8.83212 17.5367 8.71925 17.7176 8.51833C17.8984 8.31741 18 8.0449 18 7.76076C17.9993 6.2833 17.6823 4.82722 17.0751 3.51278C16.4679 2.19833 15.588 1.06323 14.508 0.201229Z" fill="#FF0000"/>
</svg>
