<svg width="63" height="63" viewBox="0 0 63 63" fill="none" xmlns="http://www.w3.org/2000/svg">
<path fill-rule="evenodd" clip-rule="evenodd" d="M45.2812 40.0912C45.2812 45.6377 39.7426 51.1875 31.5 51.1875C23.2574 51.1875 17.7188 45.6377 17.7188 40.0912C17.7188 34.3381 21.4606 27.1735 25.8586 20.9363C27.8464 18.1172 29.8414 15.6616 31.4015 13.8476C32.9913 15.8033 35.0541 18.4656 37.1095 21.4702C39.2526 24.603 41.337 28.0346 42.8728 31.3745C44.4368 34.7755 45.2812 37.7618 45.2812 40.0912ZM13.7812 40.0912C13.7812 29.3875 23.8834 16.4803 28.8319 10.7998C30.4371 8.95723 31.5 7.875 31.5 7.875C31.5 7.875 32.5183 9.00067 34.0667 10.8863C38.9771 16.8663 49.2188 30.4895 49.2188 40.0912C49.2188 48.3941 41.2858 55.125 31.5 55.125C21.7142 55.125 13.7812 48.3941 13.7812 40.0912ZM22.6374 33.4688H26.8733C26.0763 35.2878 25.5938 37.0128 25.5938 38.4803C25.5938 40.7337 27.798 43.3125 31.5 43.3125V47.25C26.0634 47.25 21.6562 43.3237 21.6562 38.4803C21.6562 36.8641 22.0323 35.1618 22.6374 33.4688Z" fill="white"/>
</svg>
